<?xml version="1.0" encoding="utf-8"?>
<!-- Generator: Adobe Illustrator 24.3.0, SVG Export Plug-In . SVG Version: 6.00 Build 0)  -->
<svg version="1.1" id="Layer_1" xmlns="http://www.w3.org/2000/svg" xmlns:xlink="http://www.w3.org/1999/xlink" x="0px" y="0px"
	 viewBox="0 0 1024 768" style="enable-background:new 0 0 1024 768;" xml:space="preserve">
<style type="text/css">
	.st0{fill:none;stroke:#000000;stroke-width:7;stroke-miterlimit:10;}
	.st1{fill:#FFFFFF;}
	.st2{fill:none;stroke:#FFFFFF;stroke-width:4;stroke-miterlimit:10;}
	.st3{fill:none;stroke:#000000;stroke-width:5;stroke-miterlimit:10;}
	.st4{fill:none;}
	.st5{font-family:'Candara';}
	.st6{font-size:135.5339px;}
</style>
<path class="st0" d="M399.12,157.01C399.12,95.7,448.82,46,510.13,46s111.01,49.7,111.01,111.01s-49.7,111.01-111.01,111.01"/>
<g>
	<g>
		<path class="st1" d="M398.95,162.01c6.43,0,6.45-10,0-10C392.51,152.01,392.5,162.01,398.95,162.01L398.95,162.01z"/>
	</g>
</g>
<g>
	<g>
		<path class="st1" d="M400,162.01c6.43,0,6.45-10,0-10C393.56,152.01,393.55,162.01,400,162.01L400,162.01z"/>
	</g>
</g>
<g>
	<g>
		<path class="st1" d="M400,162.01c6.43,0,6.45-10,0-10C393.56,152.01,393.55,162.01,400,162.01L400,162.01z"/>
	</g>
</g>
<line class="st2" x1="366.92" y1="139.44" x2="474.27" y2="174.57"/>
<g>
	<g>
		<path class="st1" d="M403.16,162.01c6.43,0,6.45-10,0-10C396.73,152.01,396.72,162.01,403.16,162.01L403.16,162.01z"/>
	</g>
</g>
<line class="st3" x1="511.49" y1="264.71" x2="511.49" y2="320.86"/>
<line class="st0" x1="511.49" y1="320.86" x2="59.71" y2="484.79"/>
<line class="st0" x1="510.93" y1="320.71" x2="962.71" y2="484.64"/>
<path class="st0" d="M1013.23,600.96c0.13,0,0.25,0.01,0.38,0.01v-59c-29.26-0.35-52.89-24.76-52.89-54.84
	c0-0.35,0.02-0.7,0.03-1.05H63.13c0,0.22,0.02,0.43,0.02,0.65c0,30.17-23.76,54.64-53.14,54.85v59.4
	c29.38,0.21,53.14,24.68,53.14,54.85c0,1.08-0.04,2.16-0.1,3.23h896.76c-0.06-1.07-0.1-2.14-0.1-3.23
	C959.71,625.52,983.67,600.96,1013.23,600.96z"/>
<rect x="109.4" y="525.45" class="st4" width="904.85" height="134.24"/>
<text transform="matrix(1 0 0 1 109.4019 618.96)" class="st5 st6">K H O U R Y ’ S</text>
<rect x="264.3" y="636.46" class="st1" width="502.12" height="45.18"/>
<g>
	<g>
		<path d="M286.71,658.1c0-10.08,5.87-16.24,14.04-16.24c3.77,0,6.73,1.81,8.6,3.82l-2.29,2.53c-1.62-1.72-3.68-2.82-6.3-2.82
			c-5.97,0-9.89,4.82-9.89,12.61c0,7.88,3.92,12.8,9.89,12.8c2.87,0,5.06-1.24,7.02-3.44l2.29,2.44c-2.44,2.87-5.54,4.54-9.7,4.54
			C292.64,674.34,286.71,668.32,286.71,658.1z"/>
		<path d="M375.97,642.44h3.96v27.94h15.47v3.39h-19.44V642.44z"/>
		<path d="M457.83,657.96c0-10.12,4.97-16.09,12.04-16.09s12.04,5.97,12.04,16.09c0,10.27-4.97,16.38-12.04,16.38
			S457.83,668.23,457.83,657.96z M477.75,657.96c0-7.88-3.15-12.56-7.88-12.56c-4.73,0-7.88,4.68-7.88,12.56
			c0,8.02,3.15,12.85,7.88,12.85C474.6,670.81,477.75,665.98,477.75,657.96z"/>
		<path d="M544.71,669.71l2.39-2.77c2.39,2.34,5.64,3.87,9.17,3.87c4.3,0,6.78-2.05,6.78-4.92c0-3.34-2.44-4.3-5.59-5.63l-4.54-2.01
			c-3.1-1.24-6.73-3.44-6.73-8.07c0-4.78,4.3-8.31,10.27-8.31c3.92,0,7.35,1.58,9.65,3.87l-2.1,2.58c-2.05-1.81-4.44-2.91-7.69-2.91
			c-3.63,0-6.07,1.72-6.07,4.54c0,3.01,2.91,4.11,5.59,5.16l4.39,1.96c3.87,1.53,6.93,3.72,6.93,8.36c0,4.97-4.2,8.93-11.08,8.93
			C551.49,674.34,547.52,672.53,544.71,669.71z"/>
		<path d="M632.92,642.44h19.39v3.39h-15.38v9.79h12.99v3.39h-12.99v11.37h15.86v3.39h-19.87V642.44z"/>
		<path d="M725.76,645.83H715.4v-3.39h24.74v3.39h-10.36v27.94h-4.01V645.83z"/>
	</g>
</g>
<g>
	<g>
		<path class="st1" d="M397.84,158.28c6.43,0,6.45-10,0-10C391.41,148.28,391.39,158.28,397.84,158.28L397.84,158.28z"/>
	</g>
</g>
<g>
	<g>
		<path class="st1" d="M402.16,163.68c6.43,0,6.45-10,0-10C395.73,153.68,395.71,163.68,402.16,163.68L402.16,163.68z"/>
	</g>
</g>
</svg>
