<?xml version="1.0" encoding="utf-8"?>
<!-- Generator: Adobe Illustrator 24.3.0, SVG Export Plug-In . SVG Version: 6.00 Build 0)  -->
<svg version="1.1" id="Layer_1" xmlns="http://www.w3.org/2000/svg" xmlns:xlink="http://www.w3.org/1999/xlink" x="0px" y="0px"
	 viewBox="0 0 900 250" style="enable-background:new 0 0 900 250;" xml:space="preserve">
<style type="text/css">
	.st0{fill:none;stroke:#000000;stroke-width:7;stroke-miterlimit:10;}
	.st1{fill:none;}
	.st2{font-family:'Candara';}
	.st3{font-size:119.4136px;}
	.st4{fill:#FFFFFF;}
</style>
<path class="st0" d="M891.1,148.07c0.11,0,0.22,0.01,0.33,0.01V96.1c-25.78-0.31-46.6-21.82-46.6-48.32c0-0.31,0.02-0.62,0.02-0.93
	H54c0,0.19,0.01,0.38,0.01,0.57C54.02,74,33.09,95.56,7.2,95.75v52.33c25.89,0.19,46.82,21.75,46.82,48.33
	c0,0.96-0.03,1.9-0.09,2.84h790.1c-0.05-0.94-0.09-1.89-0.09-2.84C843.95,169.71,865.06,148.07,891.1,148.07z"/>
<rect x="94.77" y="81.54" class="st1" width="797.23" height="118.28"/>
<text transform="matrix(1 0 0 1 94.7715 163.9258)" class="st2 st3">K H O U R Y ’ S</text>
<rect x="231.24" y="179.35" class="st4" width="442.4" height="39.8"/>
<g>
	<g>
		<path d="M250.99,198.41c0-8.88,5.18-14.31,12.37-14.31c3.32,0,5.93,1.6,7.58,3.37l-2.02,2.23c-1.43-1.52-3.24-2.48-5.56-2.48
			c-5.26,0-8.71,4.25-8.71,11.11c0,6.94,3.45,11.28,8.71,11.28c2.53,0,4.46-1.09,6.19-3.03l2.02,2.15c-2.15,2.53-4.88,4-8.54,4
			C256.21,212.72,250.99,207.42,250.99,198.41z"/>
		<path d="M329.64,184.61h3.49v24.62h13.63v2.99h-17.13V184.61z"/>
		<path d="M401.76,198.29c0-8.92,4.38-14.18,10.6-14.18c6.23,0,10.6,5.26,10.6,14.18c0,9.05-4.38,14.43-10.6,14.43
			C406.14,212.72,401.76,207.33,401.76,198.29z M419.31,198.29c0-6.94-2.78-11.07-6.94-11.07c-4.17,0-6.94,4.12-6.94,11.07
			c0,7.07,2.78,11.32,6.94,11.32C416.53,209.61,419.31,205.36,419.31,198.29z"/>
		<path d="M478.3,208.64l2.1-2.44c2.1,2.06,4.97,3.41,8.08,3.41c3.79,0,5.98-1.81,5.98-4.33c0-2.95-2.15-3.79-4.92-4.97l-4-1.77
			c-2.74-1.09-5.93-3.03-5.93-7.11c0-4.21,3.79-7.32,9.05-7.32c3.45,0,6.48,1.39,8.5,3.41l-1.85,2.27c-1.81-1.6-3.91-2.57-6.78-2.57
			c-3.2,0-5.34,1.52-5.34,4c0,2.65,2.57,3.62,4.92,4.54l3.87,1.73c3.41,1.35,6.1,3.28,6.1,7.37c0,4.38-3.7,7.87-9.76,7.87
			C484.28,212.72,480.79,211.12,478.3,208.64z"/>
		<path d="M556.02,184.61h17.09v2.99h-13.55v8.63H571v2.99h-11.45v10.02h13.97v2.99h-17.51V184.61z"/>
		<path d="M637.82,187.6h-9.13v-2.99h21.8v2.99h-9.13v24.62h-3.54V187.6z"/>
	</g>
</g>
</svg>
